<svg width="42" height="42" viewBox="0 0 42 42" fill="none" xmlns="http://www.w3.org/2000/svg">
<path d="M40 33.0237V20.1237C40 18.8813 39.9989 18.2597 39.8446 17.6816C39.7079 17.1692 39.4834 16.6844 39.1796 16.2463C38.8368 15.7519 38.3602 15.3419 37.4051 14.5237L26.0051 4.75793C24.2319 3.23892 23.3453 2.4798 22.3475 2.19091C21.4683 1.93636 20.5312 1.93636 19.652 2.19091C18.655 2.47958 17.7696 3.23799 15.9991 4.7547L4.59534 14.5237C3.64027 15.3419 3.16385 15.7519 2.82104 16.2463C2.51726 16.6844 2.29105 17.1692 2.15431 17.6816C2 18.2597 2 18.8813 2 20.1237V33.0237C2 35.1905 2 36.2735 2.36157 37.1281C2.84367 38.2676 3.76776 39.174 4.93164 39.646C5.80455 40 6.91116 40 9.12439 40C11.3376 40 12.4454 40 13.3184 39.646C14.4822 39.174 15.4061 38.2678 15.8882 37.1283C16.2498 36.2737 16.25 35.1903 16.25 33.0235V30.6983C16.25 28.13 18.3766 26.048 21 26.048C23.6234 26.048 25.75 28.13 25.75 30.6983V33.0235C25.75 35.1903 25.75 36.2737 26.1116 37.1283C26.5937 38.2678 27.5178 39.174 28.6816 39.646C29.5546 40 30.6612 40 32.8744 40C35.0876 40 36.1954 40 37.0684 39.646C38.2322 39.174 39.1561 38.2676 39.6382 37.1281C39.9998 36.2735 40 35.1905 40 33.0237Z" stroke="#8D5EDE" stroke-width="3" stroke-linecap="round" stroke-linejoin="round"/>
</svg>
