<svg width="77" height="76" viewBox="0 0 77 76" fill="none" xmlns="http://www.w3.org/2000/svg">
<g clip-path="url(#clip0_100_173)">
<path d="M38.5 6.84297C48.7867 6.84297 50.0049 6.8875 54.0504 7.06562C57.8102 7.22891 59.8404 7.85234 61.1939 8.37188C62.9836 9.05469 64.277 9.88594 65.6154 11.207C66.9689 12.543 67.7961 13.8047 68.4879 15.5711C69.0143 16.907 69.6459 18.9258 69.8113 22.6219C69.9918 26.6297 70.0369 27.832 70.0369 37.9703C70.0369 48.1234 69.9918 49.3258 69.8113 53.3188C69.6459 57.0297 69.0143 59.0336 68.4879 60.3695C67.7961 62.1359 66.9539 63.4125 65.6154 64.7336C64.2619 66.0695 62.9836 66.8859 61.1939 67.5688C59.8404 68.0883 57.7951 68.7117 54.0504 68.875C49.9898 69.0531 48.7717 69.0977 38.5 69.0977C28.2133 69.0977 26.9951 69.0531 22.9496 68.875C19.1898 68.7117 17.1596 68.0883 15.8061 67.5688C14.0164 66.8859 12.723 66.0547 11.3846 64.7336C10.0311 63.3977 9.20391 62.1359 8.51211 60.3695C7.98574 59.0336 7.3541 57.0149 7.18867 53.3188C7.0082 49.3109 6.96309 48.1086 6.96309 37.9703C6.96309 27.8172 7.0082 26.6148 7.18867 22.6219C7.3541 18.9109 7.98574 16.907 8.51211 15.5711C9.20391 13.8047 10.0461 12.5281 11.3846 11.207C12.7381 9.87109 14.0164 9.05469 15.8061 8.37188C17.1596 7.85234 19.2049 7.22891 22.9496 7.06562C26.9951 6.8875 28.2133 6.84297 38.5 6.84297ZM38.5 0C28.0479 0 26.7395 0.0445312 22.6338 0.222656C18.5432 0.400781 15.7309 1.05391 13.2945 1.98906C10.7529 2.96875 8.60234 4.26016 6.4668 6.38281C4.31621 8.49063 3.00781 10.6133 2.01523 13.107C1.06777 15.5266 0.406055 18.2875 0.225586 22.325C0.0451172 26.3922 0 27.6836 0 38C0 48.3164 0.0451172 49.6078 0.225586 53.6602C0.406055 57.6977 1.06777 60.4734 2.01523 62.8781C3.00781 65.3867 4.31621 67.5094 6.4668 69.6172C8.60234 71.725 10.7529 73.0312 13.2795 73.9961C15.7309 74.9313 18.5281 75.5844 22.6187 75.7625C26.7244 75.9406 28.0328 75.9852 38.485 75.9852C48.9371 75.9852 50.2455 75.9406 54.3512 75.7625C58.4418 75.5844 61.2541 74.9313 63.6904 73.9961C66.217 73.0312 68.3676 71.725 70.5031 69.6172C72.6387 67.5094 73.9621 65.3867 74.9397 62.893C75.8871 60.4734 76.5488 57.7125 76.7293 53.675C76.9098 49.6227 76.9549 48.3313 76.9549 38.0148C76.9549 27.6984 76.9098 26.407 76.7293 22.3547C76.5488 18.3172 75.8871 15.5414 74.9397 13.1367C73.9922 10.6133 72.6838 8.49063 70.5332 6.38281C68.3977 4.275 66.2471 2.96875 63.7205 2.00391C61.2691 1.06875 58.4719 0.415625 54.3813 0.2375C50.2605 0.0445313 48.9522 0 38.5 0Z" fill="url(#paint0_linear_100_173)"/>
<path d="M38.5 18.4805C27.5816 18.4805 18.7236 27.2234 18.7236 38C18.7236 48.7766 27.5816 57.5195 38.5 57.5195C49.4184 57.5195 58.2764 48.7766 58.2764 38C58.2764 27.2234 49.4184 18.4805 38.5 18.4805ZM38.5 50.6617C31.4166 50.6617 25.6717 44.9914 25.6717 38C25.6717 31.0086 31.4166 25.3383 38.5 25.3383C45.5834 25.3383 51.3283 31.0086 51.3283 38C51.3283 44.9914 45.5834 50.6617 38.5 50.6617Z" fill="url(#paint1_linear_100_173)"/>
<path d="M63.6754 17.7084C63.6754 20.2318 61.6 22.2654 59.0584 22.2654C56.5018 22.2654 54.4414 20.217 54.4414 17.7084C54.4414 15.185 56.5168 13.1514 59.0584 13.1514C61.6 13.1514 63.6754 15.1998 63.6754 17.7084Z" fill="url(#paint2_linear_100_173)"/>
</g>
<defs>
<linearGradient id="paint0_linear_100_173" x1="0" y1="37.9926" x2="76.9549" y2="37.9926" gradientUnits="userSpaceOnUse">
<stop stop-color="#FF4992"/>
<stop offset="1" stop-color="#8D5EDE"/>
</linearGradient>
<linearGradient id="paint1_linear_100_173" x1="18.7236" y1="38" x2="58.2764" y2="38" gradientUnits="userSpaceOnUse">
<stop stop-color="#FF4992"/>
<stop offset="1" stop-color="#8D5EDE"/>
</linearGradient>
<linearGradient id="paint2_linear_100_173" x1="54.4414" y1="17.7084" x2="63.6754" y2="17.7084" gradientUnits="userSpaceOnUse">
<stop stop-color="#FF4992"/>
<stop offset="1" stop-color="#8D5EDE"/>
</linearGradient>
<clipPath id="clip0_100_173">
<rect width="77" height="76" fill="white"/>
</clipPath>
</defs>
</svg>
