<svg width="77" height="76" viewBox="0 0 77 76" fill="none" xmlns="http://www.w3.org/2000/svg">
<path d="M56.7622 35.2245C56.4305 35.0676 56.0937 34.9166 55.7524 34.772C55.158 23.963 49.1741 17.7749 39.1263 17.7116C39.0808 17.7113 39.0356 17.7113 38.99 17.7113C32.9802 17.7113 27.9819 20.2433 24.9055 24.8507L30.4314 28.5922C32.7296 25.1506 36.3364 24.4169 38.9927 24.4169C39.0234 24.4169 39.0542 24.4169 39.0845 24.4172C42.3929 24.438 44.8894 25.3874 46.5052 27.2389C47.681 28.5868 48.4674 30.4495 48.8569 32.8003C45.9236 32.3082 42.7514 32.1569 39.3602 32.3488C29.8073 32.8919 23.6659 38.391 24.0783 46.0322C24.2876 49.9083 26.244 53.2428 29.5868 55.421C32.4131 57.2624 36.0532 58.163 39.8364 57.9591C44.8324 57.6888 48.7518 55.8074 51.4861 52.3672C53.5627 49.7547 54.8761 46.3691 55.456 42.1032C57.837 43.5215 59.6016 45.3878 60.5761 47.6314C62.2332 51.4453 62.3299 57.7125 57.1488 62.8219C52.6094 67.298 47.1528 69.2344 38.9064 69.2942C29.7589 69.2273 22.8408 66.3318 18.3428 60.688C14.1309 55.4032 11.9541 47.77 11.8729 38C11.9541 28.23 14.1309 20.5966 18.3428 15.3119C22.8408 9.66819 29.7588 6.77271 38.9063 6.70562C48.1201 6.77322 55.1588 9.68264 59.829 15.3536C62.1189 18.1346 63.8454 21.6318 64.9836 25.7095L71.4592 24.0042C70.0796 18.985 67.9087 14.66 64.9547 11.073C58.9675 3.80264 50.2112 0.0772461 38.9289 0H38.8837C27.6244 0.0769777 18.9661 3.81655 13.1494 11.1147C7.97343 17.6092 5.30349 26.6458 5.21378 37.9733L5.2135 38L5.21378 38.0267C5.30349 49.3541 7.97343 58.391 13.1494 64.8854C18.9661 72.1834 27.6244 75.9232 38.8837 76H38.9289C48.9391 75.9315 55.995 73.3448 61.8077 67.6127C69.4127 60.1136 69.1837 50.7138 66.6771 44.9433C64.8789 40.8053 61.4504 37.4443 56.7622 35.2245ZM39.4787 51.2632C35.2918 51.4959 30.9421 49.6411 30.7276 45.6681C30.5686 42.7223 32.8516 39.4353 39.7356 39.0437C40.524 38.9988 41.2976 38.9769 42.0576 38.9769C44.5581 38.9769 46.8974 39.2167 49.0241 39.6756C48.2308 49.4534 43.5779 51.0411 39.4787 51.2632Z" fill="url(#paint0_linear_100_192)"/>
<defs>
<linearGradient id="paint0_linear_100_192" x1="5.2135" y1="38" x2="71.4592" y2="38" gradientUnits="userSpaceOnUse">
<stop stop-color="#FF4992"/>
<stop offset="1" stop-color="#8D5EDE"/>
</linearGradient>
</defs>
</svg>
