<svg width="94" height="94" viewBox="0 0 94 94" fill="none" xmlns="http://www.w3.org/2000/svg">
<path d="M56.5615 22.1633C57.3767 25.6186 60.4794 28.1925 64.1843 28.1925C68.5098 28.1925 72.0164 24.6859 72.0164 20.3604C72.0164 16.035 68.5098 12.5283 64.1843 12.5283C60.4023 12.5283 57.2482 15.2088 56.5138 18.7742C50.1798 19.4535 45.2338 24.8254 45.2338 31.3357C45.2338 31.3504 45.2338 31.3614 45.2338 31.3761C38.3454 31.6661 32.0554 33.6269 27.0617 36.7223C25.2074 35.2866 22.8794 34.4311 20.3532 34.4311C14.2909 34.4311 9.37793 39.344 9.37793 45.4063C9.37793 49.8052 11.9629 53.5946 15.6972 55.3461C16.0607 68.0875 29.9441 78.3357 47.022 78.3357C64.0999 78.3357 78.0016 68.0765 78.3468 55.324C82.0517 53.5615 84.6146 49.7832 84.6146 45.41C84.6146 39.3477 79.7017 34.4347 73.6394 34.4347C71.1242 34.4347 68.8072 35.2829 66.9566 36.7076C61.9188 33.5902 55.5591 31.6294 48.6009 31.3687C48.6009 31.3577 48.6009 31.3504 48.6009 31.3393C48.6009 26.6761 52.0672 22.8059 56.5615 22.1707V22.1633ZM26.6211 52.3718C26.8046 48.3915 29.4484 45.3365 32.5218 45.3365C35.5951 45.3365 37.9451 48.5641 37.7615 52.5444C37.5779 56.5247 35.283 57.9715 32.206 57.9715C29.1289 57.9715 26.4375 56.3522 26.6211 52.3718ZM61.5259 45.3365C64.6029 45.3365 67.2467 48.3915 67.4266 52.3718C67.6102 56.3522 64.915 57.9715 61.8417 57.9715C58.7683 57.9715 56.4697 56.5284 56.2861 52.5444C56.1025 48.5641 58.4489 45.3365 61.5259 45.3365ZM57.8687 61.5809C58.4452 61.6397 58.8124 62.2382 58.5884 62.7743C56.6974 67.2943 52.2324 70.4705 47.022 70.4705C41.8116 70.4705 37.3503 67.2943 35.4556 62.7743C35.2316 62.2382 35.5988 61.6397 36.1753 61.5809C39.5534 61.2394 43.2069 61.0522 47.022 61.0522C50.8371 61.0522 54.4869 61.2394 57.8687 61.5809Z" fill="url(#paint0_linear_100_193)"/>
<defs>
<linearGradient id="paint0_linear_100_193" x1="9.37793" y1="45.432" x2="84.6146" y2="45.432" gradientUnits="userSpaceOnUse">
<stop stop-color="#FF4992"/>
<stop offset="1" stop-color="#8D5EDE"/>
</linearGradient>
</defs>
</svg>
